<svg width="32" height="34" viewBox="0 0 32 34" fill="none" xmlns="http://www.w3.org/2000/svg">
<path fill-rule="evenodd" clip-rule="evenodd" d="M13.4245 16L14.556 17.0131L12.541 21.0727H16L12.275 28L11.1726 26.9306L13.3404 22.8992H10L13.4245 16Z" fill="url(#paint0_linear_9_3536)"/>
<path fill-rule="evenodd" clip-rule="evenodd" d="M19.9953 16L21.3153 17.0131L18.9645 21.0727H23L18.6542 28L17.368 26.9306L19.8971 22.8992H16L19.9953 16Z" fill="url(#paint1_linear_9_3536)"/>
<path fill-rule="evenodd" clip-rule="evenodd" d="M10 23.79C5.40237 22.5848 2 18.2669 2 13.125C2 7.04987 6.74949 2.125 12.6083 2.125C17.469 2.125 21.5661 5.51476 22.821 10.1389C22.9626 10.1297 23.1054 10.125 23.2493 10.125C26.9776 10.125 30 13.259 30 17.125C30 20.991 26.9776 24.125 23.2493 24.125C23.1658 24.125 23.0827 24.1234 23 24.1203V22.125H23.3029V22.1246C25.8359 22.0945 28 19.9355 28 17.125C28 14.2946 25.8053 12.125 23.2493 12.125C22.5272 12.125 21.8339 12.2982 21.2108 12.6105C21.1791 12.0287 21.0937 11.4617 20.9599 10.9149L20.9569 10.9161C20.0091 6.97504 16.5839 4.125 12.6083 4.125C7.92179 4.125 4 8.08546 4 13.125C4 17.1907 6.55261 20.5541 10 21.7022V23.79Z" fill="url(#paint2_linear_9_3536)"/>
<path d="M11.7321 29L13.4641 30.0625V32.1875L11.7321 33.25L10 32.1875V30.0625L11.7321 29Z" fill="url(#paint3_linear_9_3536)"/>
<path d="M17.2679 29L19 30.0625V32.1875L17.2679 33.25L15.5359 32.1875V30.0625L17.2679 29Z" fill="url(#paint4_linear_9_3536)"/>
<path d="M22.7321 29L24.4641 30.0625V32.1875L22.7321 33.25L21 32.1875V30.0625L22.7321 29Z" fill="url(#paint5_linear_9_3536)"/>
<defs>
<linearGradient id="paint0_linear_9_3536" x1="13" y1="16" x2="13" y2="28" gradientUnits="userSpaceOnUse">
<stop stop-color="#F5BD52"/>
<stop offset="1" stop-color="#F5DA79"/>
</linearGradient>
<linearGradient id="paint1_linear_9_3536" x1="19.5" y1="16" x2="19.5" y2="28" gradientUnits="userSpaceOnUse">
<stop stop-color="#F5BD52"/>
<stop offset="1" stop-color="#F5DA79"/>
</linearGradient>
<linearGradient id="paint2_linear_9_3536" x1="16" y1="2.125" x2="16" y2="24.125" gradientUnits="userSpaceOnUse">
<stop stop-color="#95B6F6"/>
<stop offset="1" stop-color="#5193DE"/>
</linearGradient>
<linearGradient id="paint3_linear_9_3536" x1="14.5" y1="29" x2="14.5" y2="33.25" gradientUnits="userSpaceOnUse">
<stop stop-color="#CED3EA"/>
<stop offset="1" stop-color="#7E83A9"/>
</linearGradient>
<linearGradient id="paint4_linear_9_3536" x1="14.5" y1="29" x2="14.5" y2="33.25" gradientUnits="userSpaceOnUse">
<stop stop-color="#CED3EA"/>
<stop offset="1" stop-color="#7E83A9"/>
</linearGradient>
<linearGradient id="paint5_linear_9_3536" x1="22.7321" y1="29" x2="22.7321" y2="33.25" gradientUnits="userSpaceOnUse">
<stop stop-color="#CED3EA"/>
<stop offset="1" stop-color="#7E83A9"/>
</linearGradient>
</defs>
</svg>
